# xmcd
#
# Track frame offsets:
#	150
#	17520
#	34452
#	51825
#	70807
#	83997
#	97537
#	112210
#	129375
#	160907
#	177075
#	191710
#	207982
#
# Disc length: 3061 seconds
#
# Revision: 0
# Processed by: cddbd v1.5.2PL0 Copyright (c) Steve Scherf et al.
# Submitted via: EasyCDDAExtractor 16.1.0.1
#
DISCID=ad0bf30d
DTITLE=Billy Joel - Greatest Hits II
DYEAR=1900
DGENRE=
TTITLE0=My Life
TTITLE1=Big Shot
TTITLE2=Honesty
TTITLE3=You May Be Right
TTITLE4=It's still rock and roll to me 
TTITLE5=She's Got Away
TTITLE6=Pressure
TTITLE7=Allentown
TTITLE8=Goodnight Saigon
TTITLE9=Tell Her About It
TTITLE10=Uptown Girl
TTITLE11=The Longest Time
TTITLE12=You're Only Human (Second Wind)
EXTD=
EXTT0=
EXTT1=
EXTT2=
EXTT3=
EXTT4=
EXTT5=
EXTT6=
EXTT7=
EXTT8=
EXTT9=
EXTT10=
EXTT11=
EXTT12=
PLAYORDER=
